<svg xmlns="http://www.w3.org/2000/svg" version="1.1" xmlns:xlink="http://www.w3.org/1999/xlink" xmlns:svgjs="http://svgjs.dev/svgjs" width="100%" height="100%" viewBox="0 0 1000 600"><rect width="1000" height="600" x="0" y="0" fill="#b287a3"/><g><rect width="333.3333333333333" height="333.3333333333333" rx="13.333333333333334" ry="13.333333333333334" y="228.4600698225498" fill="#c4b5fd" transform="matrix(0.6060962390860258,0,0,0.6060962390860257,0,60.51515124613202)" x="206.23782348632812"/><path d="M340.8068455788122 470.1267570248977L340.8068455788122 470.1267570248977Q333.1241288878241 470.1267570248977 326.18954191206325 467.6233999008679Q319.25495493630245 465.1488169966545 314.2770149080592 460.1708769684112L314.2770149080592 460.1708769684112L321.12527922437073 449.2078992183495Q325.2687668779373 453.12119311338466 330.13161002691487 455.3080338194337Q334.9944531758924 457.49487452548277 341.0082651175273 457.49487452548277L341.0082651175273 457.49487452548277Q348.2593685112689 457.49487452548277 353.52505073767645 453.43770953136544Q358.81950718390055 449.40931875706457 363.5960276734287 439.252019161863L363.5960276734287 439.252019161863L370.61693730863885 423.311101383558L372.2858420579921 421.00916379824326L417.02975387254844 320.12674912182223L431.5319606600317 320.12674912182223L377.06236254752025 441.9567958246079Q372.4872615967071 452.51693449723956 366.99138561176807 458.7321659775895Q361.5242838466454 464.9473974579394 355.078858607764 467.53707724141856Q348.66220758869895 470.1267570248977 340.8068455788122 470.1267570248977ZM379.3355259130186 419.97329188485156L369.8112591537787 432.0009157681214L319.65779401373254 320.12674912182223L334.9944531758924 320.12674912182223L379.3355259130186 419.97329188485156Z " fill="white" transform="matrix(0.6060962390860258,0,0,0.6060962390860257,0,60.51515124613202)"/><path d="M693.8044550844978 469.1226588519214L679.1335733829584 469.1226588519214L679.1335733829584 416.9099391840852L682.564216822672 426.14199592022504L622.9044906637503 328.54995205390094L638.7747029986854 328.54995205390094L691.1826625370744 414.28814663666185L682.7594566932248 414.28814663666185L735.1674162316137 328.54995205390094L750.033537803706 328.54995205390094L690.3738116447843 426.14199592022504L693.8044550844978 416.9099391840852L693.8044550844978 469.1226588519214ZM836.7758231493099 469.1226588519214L823.1369236206924 469.1226588519214L823.1369236206924 445.8333314359795L822.523312598955 442.0122082551603L822.523312598955 403.04790837483597Q822.523312598955 389.60424871677134 814.9926318776326 382.3803735063175Q807.4619511563101 375.1286068857847 792.5958295842178 375.1286068857847L792.5958295842178 375.1286068857847Q782.3596820852349 375.1286068857847 773.1276253490951 378.5592503254983Q763.8955686129552 381.9620023551329 757.4526528847127 387.5960671910853L757.4526528847127 387.5960671910853L751.0376285665491 376.9415485409179Q759.070354669293 370.1081530715697 770.3105929311189 366.39859553106635Q781.5508311929448 362.689037990563 794.0182914982454 362.689037990563L794.0182914982454 362.689037990563Q814.4905864962111 362.689037990563 825.6471505278 372.84151125930896Q836.7758231493099 382.9660931179759 836.7758231493099 403.6615193965734L836.7758231493099 403.6615193965734L836.7758231493099 469.1226588519214ZM786.7665248777125 470.1267496147644L786.7665248777125 470.1267496147644Q774.9405670042283 470.1267496147644 766.182664239431 466.22195220370827Q757.4526528847127 462.2892633825732 752.8505702216822 455.37219368298804Q748.2205961485729 448.4272325733239 748.2205961485729 439.3904157077369L748.2205961485729 439.3904157077369Q748.2205961485729 431.1624497344401 752.125393559629 424.44061990540774Q756.0580823807641 417.7187900763754 764.9833336060352 413.5908613846875Q773.9364762413853 409.4908241030786 788.9978376840304 409.4908241030786L788.9978376840304 409.4908241030786L825.3403450169313 409.4908241030786L825.3403450169313 420.11745134316703L789.3883174251359 420.11745134316703Q774.1317161119381 420.11745134316703 768.190845765117 425.5562763085666Q762.2778668283748 430.96720986388726 762.2778668283748 438.9999359666313L762.2778668283748 438.9999359666313Q762.2778668283748 448.0367528322183 769.3065021682759 453.44768638753897Q776.3351375081769 458.88651135293856 788.9978376840304 458.88651135293856L788.9978376840304 458.88651135293856Q801.0469268381464 458.88651135293856 809.7769381928647 453.36401215730206Q818.5069495475831 447.8415129616655 822.523312598955 437.3822341820509L822.523312598955 437.3822341820509L825.730824758037 447.22790193992813Q821.7144617066649 457.6871807195427 811.7851197185507 463.9069651671536Q801.8278863203576 470.1267496147644 786.7665248777125 470.1267496147644ZM903.8546643892385 470.1267496147644L903.8546643892385 470.1267496147644Q890.8014844722793 470.1267496147644 879.1428750592689 466.4171920742611Q867.5121570563374 462.70763453375775 860.874001457542 457.07356969780534L860.874001457542 457.07356969780534L867.3169171857846 445.8333314359795Q873.7319415039483 450.65854537964174 883.7728491323783 454.1728630495922Q893.8137567608082 457.6871807195427 904.8587551520814 457.6871807195427L904.8587551520814 457.6871807195427Q919.9201165947264 457.6871807195427 926.5582721935218 452.94564100611746Q933.1685363822382 448.23199270277115 933.1685363822382 440.3945064705799L933.1685363822382 440.3945064705799Q933.1685363822382 434.5930931741537 929.458978841735 431.27401537475595Q925.7494213012317 427.95493757535826 919.7248767241736 426.25356156054096Q913.7003321471157 424.5521855457236 906.25332565603 423.32496350224886Q898.8342105750233 422.1256328688531 891.4987697242536 420.53582249435163Q884.1633288734839 418.91812070977124 878.1387842964259 415.7942827809263Q872.1142397193679 412.69833626216035 868.4046821788645 407.25951129676076Q864.6951246383612 401.8485777414402 864.6951246383612 392.8117608758531L864.6951246383612 392.8117608758531Q864.6951246383612 384.1654237513717 869.5203385820234 377.35991969210244Q874.3455525256857 370.52652422275423 883.6612834920625 366.5938354016192Q893.0049058685181 362.689037990563 906.4764569366617 362.689037990563L906.4764569366617 362.689037990563Q916.7126044356446 362.689037990563 926.9487519346275 365.3945047682233Q937.1848994336103 368.09997154588365 943.8230550324056 372.5347057484402L943.8230550324056 372.5347057484402L937.6032705847949 383.9701838808189Q930.5746352448939 379.1449699371567 922.5419091421497 377.05311418123375Q914.5091830394058 374.93336701523185 906.4764569366617 374.93336701523185L906.4764569366617 374.93336701523185Q892.196054976228 374.93336701523185 885.4742251471955 379.87014659921Q878.7523953181633 384.7790347731091 878.7523953181633 392.4212811347475L878.7523953181633 392.4212811347475Q878.7523953181633 398.4458257118055 882.4619528586666 401.8485777414402Q886.1715103991698 405.2513297710748 892.3076206165438 407.17583706652385Q898.4437308339177 409.072452951894 905.7512802746085 410.2717835852898Q913.0867211253782 411.4990056287646 920.4221619761479 413.2003816435819Q927.7576028269177 414.9017576583992 933.8658216342126 417.8024643066123Q940.0019318515865 420.7310623649044 943.7114893920898 426.05832168998813Q947.4210469325931 431.3576896049929 947.4210469325931 440.00402672947433L947.4210469325931 440.00402672947433Q947.4210469325931 449.2360834656142 942.3169188881412 455.95791329464646Q937.1848994336103 462.70763453375775 927.4507973160489 466.4171920742611Q917.7166951984875 470.1267496147644 903.8546643892385 470.1267496147644ZM1027.3578282189278 362.689037990563L1027.3578282189278 362.689037990563Q1040.215768265334 362.689037990563 1049.9498703828954 367.59792616446214Q1059.6839725004565 372.5347057484402 1065.206471696093 382.5756133768703Q1070.7289708917297 392.61652100530034 1070.7289708917297 407.8731223184982L1070.7289708917297 407.8731223184982L1070.7289708917297 469.1226588519214L1056.476460341375 469.1226588519214L1056.476460341375 409.2676928224468Q1056.476460341375 392.61652100530034 1048.136928727762 384.0817495211348Q1039.7973971141494 375.5469780369693 1024.7360356715044 375.5469780369693L1024.7360356715044 375.5469780369693Q1013.4957974096785 375.5469780369693 1005.1562657960658 380.06538646976276Q996.844625592532 384.5837949025563 992.3262171597387 393.11856638672185Q987.807808726945 401.65333787088736 987.807808726945 413.7024270250034L987.807808726945 413.7024270250034L987.807808726945 469.1226588519214L973.5274067665111 469.1226588519214L973.5274067665111 320.12674621005124L987.807808726945 320.12674621005124L987.807808726945 392.61652100530034L984.9907763089689 387.1776960399007Q990.0112301231839 375.74221790752205 1001.056228514457 369.2156279490425Q1012.10122690573 362.689037990563 1027.3578282189278 362.689037990563ZM1189.0164410366515 469.1226588519214L1175.349650097955 469.1226588519214L1175.349650097955 445.8333314359795L1174.7639304862964 442.0122082551603L1174.7639304862964 403.04790837483597Q1174.7639304862964 389.60424871677134 1167.233249764974 382.3803735063175Q1159.7025690436515 375.1286068857847 1144.836447471559 375.1286068857847L1144.836447471559 375.1286068857847Q1134.6002999725765 375.1286068857847 1125.3682432364365 378.5592503254983Q1116.1082950902178 381.9620023551329 1109.6932707720541 387.5960671910853L1109.6932707720541 387.5960671910853L1103.2782464538905 376.9415485409179Q1111.3109725566344 370.1081530715697 1122.5512108184603 366.39859553106635Q1133.7914490802862 362.689037990563 1146.2310179755077 362.689037990563L1146.2310179755077 362.689037990563Q1166.7312043835525 362.689037990563 1177.8598770050626 372.84151125930896Q1189.0164410366515 382.9660931179759 1189.0164410366515 403.6615193965734L1189.0164410366515 403.6615193965734L1189.0164410366515 469.1226588519214ZM1139.0071427650541 470.1267496147644L1139.0071427650541 470.1267496147644Q1127.153293481491 470.1267496147644 1118.4232821267724 466.22195220370827Q1109.6932707720541 462.2892633825732 1105.0632966989447 455.37219368298804Q1100.4612140359143 448.4272325733239 1100.4612140359143 439.3904157077369L1100.4612140359143 439.3904157077369Q1100.4612140359143 431.1624497344401 1104.3660114469703 424.44061990540774Q1108.2987002681054 417.7187900763754 1117.2239514933767 413.5908613846875Q1126.1492027186478 409.4908241030786 1141.210564161293 409.4908241030786L1141.210564161293 409.4908241030786L1177.5809629042728 409.4908241030786L1177.5809629042728 420.11745134316703L1141.6289353124776 420.11745134316703Q1126.3723339992796 420.11745134316703 1120.4314636524584 425.5562763085666Q1114.5184847157163 430.96720986388726 1114.5184847157163 438.9999359666313L1114.5184847157163 438.9999359666313Q1114.5184847157163 448.0367528322183 1121.5471200556174 453.44768638753897Q1128.5757553955184 458.88651135293856 1141.210564161293 458.88651135293856L1141.210564161293 458.88651135293856Q1153.2596533154087 458.88651135293856 1162.0175560802063 453.36401215730206Q1170.7475674349246 447.8415129616655 1174.7639304862964 437.3822341820509L1174.7639304862964 437.3822341820509L1177.9714426453784 447.22790193992813Q1173.9550795940063 457.6871807195427 1164.0257376058921 463.9069651671536Q1154.0685042076989 470.1267496147644 1139.0071427650541 470.1267496147644ZM1269.7341818051973 470.1267496147644L1269.7341818051973 470.1267496147644Q1254.672820362552 470.1267496147644 1242.7352968487521 463.2933541454162Q1230.797773334952 456.45995867606797 1223.9643778656036 444.327195291715Q1217.1309823962556 432.16654049728305 1217.1309823962556 416.29632816234783L1217.1309823962556 416.29632816234783Q1217.1309823962556 400.23087595685973 1223.9643778656036 388.1817868027437Q1230.797773334952 376.1326976486277 1242.7352968487521 369.41086781959535Q1254.672820362552 362.689037990563 1269.7341818051973 362.689037990563L1269.7341818051973 362.689037990563Q1283.5962126144464 362.689037990563 1294.5575367754827 368.90882243817384Q1305.4909695264396 375.1286068857847 1312.0175594849193 387.0940218096638Q1318.544149443399 399.03154532346394 1318.544149443399 416.29632816234783L1318.544149443399 416.29632816234783Q1318.544149443399 433.3658711306789 1312.129125125235 445.4149602847949Q1305.6862093969926 457.464049438911 1294.7527766460353 463.7953995268377Q1283.7914524849994 470.1267496147644 1269.7341818051973 470.1267496147644ZM1270.7382725680402 457.464049438911L1270.7382725680402 457.464049438911Q1282.0064022399451 457.464049438911 1290.9316534652162 452.35992139445904Q1299.8569046904872 447.22790193992813 1304.9889241450182 437.8842795634724Q1310.1209435995493 428.5685485970956 1310.1209435995493 416.29632816234783L1310.1209435995493 416.29632816234783Q1310.1209435995493 403.85675926712617 1304.9889241450182 394.6247025309863Q1299.8569046904872 385.3926457948465 1290.9316534652162 380.2606263403156Q1282.0064022399451 375.1286068857847 1270.7382725680402 375.1286068857847L1270.7382725680402 375.1286068857847Q1259.6932741767673 375.1286068857847 1250.879588591812 380.2606263403156Q1242.0380115967778 385.3926457948465 1236.82231791201 394.6247025309863Q1231.5787328171632 403.85675926712617 1231.5787328171632 416.29632816234783L1231.5787328171632 416.29632816234783Q1231.5787328171632 428.5685485970956 1236.82231791201 437.8842795634724Q1242.0380115967778 447.22790193992813 1250.879588591812 452.35992139445904Q1259.6932741767673 457.464049438911 1270.7382725680402 457.464049438911ZM1324.1782142793513 469.1226588519214L1310.5114233406548 469.1226588519214L1310.5114233406548 437.3822341820509L1311.9059938446035 416.101088291795L1309.8978123189172 394.81994240153915L1309.8978123189172 320.12674621005124L1324.1782142793513 320.12674621005124L1324.1782142793513 469.1226588519214ZM1443.6650150576684 469.1226588519214L1429.9982241189723 469.1226588519214L1429.9982241189723 445.8333314359795L1429.3846130972347 442.0122082551603L1429.3846130972347 403.04790837483597Q1429.3846130972347 389.60424871677134 1421.8539323759123 382.3803735063175Q1414.3232516545897 375.1286068857847 1399.4850214925764 375.1286068857847L1399.4850214925764 375.1286068857847Q1389.2209825835148 375.1286068857847 1379.9889258473747 378.5592503254983Q1370.7568691112351 381.9620023551329 1364.3418447930712 387.5960671910853L1364.3418447930712 387.5960671910853L1357.8989290648287 376.9415485409179Q1365.931655167573 370.1081530715697 1377.1718934293986 366.39859553106635Q1388.4400231013035 362.689037990563 1400.879591996525 362.689037990563L1400.879591996525 362.689037990563Q1421.3518869944908 362.689037990563 1432.5084510260795 372.84151125930896Q1443.6650150576684 382.9660931179759 1443.6650150576684 403.6615193965734L1443.6650150576684 403.6615193965734L1443.6650150576684 469.1226588519214ZM1393.6557167860713 470.1267496147644L1393.6557167860713 470.1267496147644Q1381.8018675025082 470.1267496147644 1373.0718561477897 466.22195220370827Q1364.3418447930712 462.2892633825732 1359.711870719962 455.37219368298804Q1355.0818966468523 448.4272325733239 1355.0818966468523 439.3904157077369L1355.0818966468523 439.3904157077369Q1355.0818966468523 431.1624497344401 1359.0145854679877 424.44061990540774Q1362.9193828790437 417.7187900763754 1371.872525514394 413.5908613846875Q1380.797776739665 409.4908241030786 1395.85913818231 409.4908241030786L1395.85913818231 409.4908241030786L1432.201645515211 409.4908241030786L1432.201645515211 420.11745134316703L1396.2496179234156 420.11745134316703Q1380.9930166102179 420.11745134316703 1375.0800376734758 425.5562763085666Q1369.1391673266546 430.96720986388726 1369.1391673266546 438.9999359666313L1369.1391673266546 438.9999359666313Q1369.1391673266546 448.0367528322183 1376.1678026665554 453.44768638753897Q1383.1964380064567 458.88651135293856 1395.85913818231 458.88651135293856L1395.85913818231 458.88651135293856Q1407.908227336426 458.88651135293856 1416.6382386911444 453.36401215730206Q1425.3682500458626 447.8415129616655 1429.3846130972347 437.3822341820509L1429.3846130972347 437.3822341820509L1432.6200166663957 447.22790193992813Q1428.6036536150236 457.6871807195427 1418.6464202168304 463.9069651671536Q1408.7170782287162 470.1267496147644 1393.6557167860713 470.1267496147644Z " fill="white" transform="matrix(0.6060962390860258,0,0,0.6060962390860257,0,60.51515124613202)"/></g></svg>